<svg width="61" height="61" viewBox="0 0 61 61" fill="none" xmlns="http://www.w3.org/2000/svg">
<path fill-rule="evenodd" clip-rule="evenodd" d="M3.88466 5.54923C0 10.0526 0 16.8684 0 30.5C0 44.1316 0 50.9474 3.88466 55.4508C4.39789 56.0457 4.95426 56.6021 5.54923 57.1153C10.0526 61 16.8684 61 30.5 61C44.1316 61 50.9474 61 55.4508 57.1153C56.0457 56.6021 56.6021 56.0457 57.1153 55.4508C61 50.9474 61 44.1316 61 30.5C61 16.8684 61 10.0526 57.1153 5.54923C56.6021 4.95426 56.0457 4.39789 55.4508 3.88466C50.9474 0 44.1316 0 30.5 0C16.8684 0 10.0526 0 5.54923 3.88466C4.95426 4.39789 4.39789 4.95426 3.88466 5.54923ZM11.6729 30.5241C11.6729 20.3099 20.0457 12 30.3373 12C40.628 12 49 20.3099 49 30.5241C49 40.7373 40.628 49.0463 30.3374 49.0462C27.251 49.0462 24.2014 48.2852 21.5032 46.8435L11.6429 49.9768C11.5938 49.9925 11.5434 50 11.4935 50C11.3631 50 11.2354 49.9482 11.1412 49.8521C11.0108 49.7193 10.9664 49.5244 11.0261 49.3481L14.2318 39.8919C12.557 37.0616 11.6729 33.8278 11.6729 30.5241ZM22.2023 42.7624C24.6203 44.349 27.4331 45.1876 30.3373 45.1876C38.4882 45.1876 45.1193 38.6096 45.1192 30.5241C45.1192 22.4377 38.4879 15.8587 30.3372 15.8587C22.1854 15.8587 15.5534 22.4377 15.5534 30.5241C15.5534 33.6322 16.5268 36.6048 18.368 39.1207C18.463 39.2504 18.4888 39.4184 18.4372 39.5706L16.8427 44.2748L21.7821 42.7047C21.8311 42.6892 21.8814 42.6815 21.9316 42.6815C22.0266 42.6815 22.121 42.7089 22.2023 42.7624ZM39.0246 33.7896L39.1178 33.8352L39.118 33.8353C39.4807 34.0094 39.7672 34.147 39.9335 34.4204C40.1763 34.8224 40.0801 35.9304 39.7151 36.9444C39.2519 38.2318 37.2152 39.2872 36.2884 39.3694L36.1524 39.3823C35.9381 39.4034 35.695 39.4272 35.3915 39.4272C34.6693 39.4272 33.3989 39.3034 30.716 38.2317C27.9293 37.1185 25.1804 34.7319 22.9753 31.5115C22.9371 31.4557 22.9109 31.4169 22.8966 31.3978C22.3208 30.6389 20.9796 28.6435 20.9796 26.5302C20.9796 24.1821 22.1036 22.8469 22.768 22.428C23.3945 22.0331 24.8115 21.8465 25.0717 21.8356C25.1785 21.8311 25.2192 21.8288 25.2395 21.8277L25.2586 21.8268C25.2649 21.8266 25.2712 21.8266 25.2854 21.8266C25.8345 21.8266 26.2297 22.1598 26.5288 22.8755C26.5586 22.9467 26.6487 23.1636 26.7694 23.4538C27.1512 24.3725 27.8386 26.0267 27.8884 26.1262C27.9682 26.2828 28.2152 26.7677 27.926 27.3422L27.8639 27.467L27.8636 27.4677L27.8636 27.4677C27.7453 27.7075 27.6431 27.9146 27.4139 28.1813C27.3402 28.2665 27.2652 28.3568 27.1903 28.447L27.1899 28.4475L27.1898 28.4475L27.1897 28.4477C27.0317 28.6378 26.8685 28.8343 26.7178 28.9834C26.6662 29.0351 26.5663 29.1353 26.5554 29.1751L26.5556 29.1761C26.5565 29.1821 26.5619 29.2166 26.6018 29.2846C26.9111 29.808 29.1668 32.9123 32.1386 34.2032C32.2684 34.2596 32.6971 34.4361 32.7219 34.4361C32.7495 34.4361 32.7957 34.39 32.8295 34.3514C33.0883 34.0589 33.9261 33.0796 34.2028 32.6683C34.4476 32.3021 34.7618 32.1157 35.1359 32.1157C35.3649 32.1157 35.5802 32.1861 35.7812 32.2583C36.2256 32.4183 38.5271 33.5459 39.0245 33.7895L39.0246 33.7896Z" fill="white"/>
</svg>
