<?xml version="1.0" encoding="UTF-8"?>
<svg id="Layer_1" data-name="Layer 1" xmlns="http://www.w3.org/2000/svg" viewBox="0 0 406 406">
  <defs>
    <style>
      .cls-1 {
        fill: #121212;
      }
    </style>
  </defs>
  <path class="cls-1" d="M236.05,0c3.84,20.66,3.68,40.98,24.08,53.03,27.2,16.06,41.7-1.55,65.45-12.29,3.96.38,33.92,28.62,36.52,33.04,11.04,18.81-9.91,21.79-12.55,38.12-7.15,44.15,20.23,53.33,56.46,61.2v66.09c-30.4-12.1-62.75,13.49-59.65,45.26,1.59,16.34,15.6,23.45,18.92,37.98-.38,3.96-28.62,33.92-33.04,36.52-15.84,9.3-17.66-2.38-27.86-7.09-46.2-21.38-66.83,12.86-71.46,54.15h-56.65c-9.45-20.73-4.24-42.6-27.23-56.18-27.2-16.06-41.7,1.55-65.45,12.29-4.72-.45-37.58-32.45-38.96-37.05-4.83-16.07,11.61-18.63,14.52-31.46,10.31-45.42-21.69-58.2-59.13-63.86v-59.8c26.91-1.71,57.68-8.75,62.26-40.16,3.5-23.97-11.33-29.82-18.38-49.37.38-3.96,28.62-33.92,33.04-36.52,17.5-10.28,23.96,9.79,41.29,12.52,42.21,6.66,50.11-23.9,61.18-56.43h56.65ZM308.38,254.9c59.49-125.71-109.48-233.82-195-124.22-78.16,100.16,40.67,231.82,150.99,171.41,1.4-5.42-2.28-6.28-4.69-9.42-3.47-4.52-36.73-38.01-39.41-39.24-11.57-5.32-23.73,2.08-35.97,1.61-42.29-1.61-73.69-42.55-67.98-83.67,5.42-39.01,38.3,16.62,49.56,19.96,23.44,6.95,41.35-7.66,30.76-30.77-4.8-10.47-53.73-39.07-23.69-48.97,40.42-13.33,85.43,26.78,87.58,67.2.53,9.92-6.44,26.38-4.09,32.01,1.12,2.68,37.42,38.94,40.83,41.14,3.81,2.47,6.32,3.98,11.12,2.97Z"/>
</svg>