<svg width="61" height="61" viewBox="0 0 61 61" fill="none" xmlns="http://www.w3.org/2000/svg">
<rect width="61" height="61" rx="16" fill="white"/>
<path d="M15.9168 44C15.1293 44 14.4462 43.7211 13.8676 43.1634C13.2892 42.6054 13 41.9467 13 41.1874V19.8126C13 19.0533 13.2892 18.3946 13.8676 17.8366C14.4462 17.2789 15.1293 17 15.9168 17H45.0832C45.8707 17 46.5538 17.2789 47.1324 17.8366C47.7108 18.3946 48 19.0533 48 19.8126V41.1874C48 41.9467 47.7108 42.6054 47.1324 43.1634C46.5538 43.7211 45.8707 44 45.0832 44H15.9168ZM30.5 31.5686L15.9168 22.4844V41.1874H45.0832V22.4844L30.5 31.5686ZM30.5 28.7564L44.9668 19.8126H16.0625L30.5 28.7564ZM15.9168 22.4844V19.8126V41.1874V22.4844Z" fill="#444444"/>
</svg>
