<?xml version="1.0" encoding="UTF-8"?>
<svg id="Layer_1" data-name="Layer 1" xmlns="http://www.w3.org/2000/svg" viewBox="0 0 291 250.45">
  <defs>
    <style>
      .cls-1 {
        fill: #fefefe;
      }
    </style>
  </defs>
  <path class="cls-1" d="M0,192.08c30.74-15.58,64.1-71.23,100.53-72.24l112.45,25.35c5.75,1.3,10.79,4.76,14.05,9.67h0c0,9.61-29.14,16.92-36.41,16.92h-53.01c0,8.72,7.07,15.79,15.79,15.79h55.27c37.55,0,44.78-66.59,82.34-54.14h0c0,9.9-2.77,19.6-7.96,28.03-12.24,19.91-20.9,38.03-41.65,54.33-72.02,56.55-129.19-19.01-199.32,34.67L7.54,202.53l-7.54-10.45Z"/>
  <path class="cls-1" d="M199.88,12.58l1.98,3.53c40.04-30.01,79.59,6.31,57.09,53.19-5.7,11.88-47.92,53.27-57.11,52.78-28.33-21.34-83.42-64.17-62.32-102.28C146.06,7.98,158.3.18,171.8,0c11.56-.15,20.63,5.1,28.08,12.57Z"/>
</svg>