<svg xmlns="http://www.w3.org/2000/svg" width="370" height="370" viewBox="0 0 370 370" fill="none"><g clip-path="url(#clip0_301_554)"><path d="M295.702 262.51C300.874 267.581 305.648 272.354 310.522 277.127C316.987 273.05 317.484 273.15 323.551 279.215C335.884 291.545 348.317 303.676 360.452 316.106C374.575 330.524 372.785 352.4 356.871 364.034C345.234 372.486 328.922 372.088 318.28 362.145C303.957 348.721 290.331 334.601 276.505 320.68C273.422 317.597 273.82 315.012 277.202 310.935C272.129 305.864 267.056 300.793 261.884 295.622C256.116 298.207 249.849 301.688 243.086 304.174C224.884 310.935 206.285 312.029 187.387 307.753C185.199 307.256 184.005 307.753 182.513 309.145C175.253 316.504 168.091 323.862 160.532 330.922C158.742 332.612 155.858 333.805 153.371 333.905C146.21 334.303 138.949 334.004 131.29 334.004C131.29 339.374 131.29 344.544 131.29 349.715C131.29 362.642 124.129 369.801 111.298 369.801C88.7204 369.801 66.043 369.801 43.4651 369.801C31.3306 369.801 23.9704 362.443 23.9704 350.312C23.9704 335.396 23.9704 320.481 23.9704 305.566C23.9704 293.633 31.4301 286.275 43.2661 286.275C66.2419 286.275 89.2177 286.275 112.293 286.275C123.93 286.275 131.29 293.733 131.39 305.466C131.39 310.836 131.39 316.106 131.39 322.072C138.452 322.072 145.315 322.072 152.177 322.072C152.675 322.072 153.271 321.575 153.669 321.177C159.637 315.31 165.505 309.543 171.771 303.279C170.28 302.583 169.285 302.085 168.191 301.588C150.487 293.733 136.065 281.801 125.223 265.791C123.433 263.206 121.642 262.411 118.559 262.411C85.7366 262.51 52.914 262.51 20.0914 262.51C7.16129 262.51 0 255.45 0 242.523C0 168.345 0 94.1655 0 19.8871C0 7.2588 7.16129 0 19.793 0C129.898 0 240.102 0 350.207 0C362.739 0 370 7.2588 370 19.6883C370 93.9667 370 168.345 370 242.623C370 255.251 362.739 262.51 350.108 262.51C332.105 262.51 314.102 262.51 295.702 262.51ZM124.726 152.137C122.836 150.048 121.145 148.159 119.255 146.17C98.7661 168.543 78.4758 190.618 58.086 212.792C55.0027 210.008 52.2177 207.423 49.4328 204.937C49.7312 204.44 49.8306 204.141 50.0296 204.042C71.414 180.675 92.7984 157.307 114.282 133.94C117.664 130.261 121.046 130.36 124.427 134.039C127.013 136.823 129.5 139.707 132.086 142.591C149.89 122.604 171.772 111.268 197.731 107.888C197.632 107.39 197.731 107.092 197.632 106.893C190.669 95.5576 183.608 84.3214 176.546 73.0852C176.148 72.3891 175.054 71.6931 174.258 71.6931C167.992 71.5937 161.726 71.5937 155.161 71.5937C155.161 77.4604 155.161 82.9293 155.161 88.3983C155.062 99.8334 147.702 107.39 136.263 107.39C112.989 107.39 89.8145 107.39 66.5403 107.39C55.4005 107.39 47.7419 99.8334 47.7419 88.6966C47.7419 73.3835 47.7419 58.0704 47.7419 42.8568C47.7419 31.4217 55.3011 23.964 66.6398 23.964C89.7151 23.964 112.89 23.964 135.965 23.964C147.602 23.964 154.962 31.4217 155.062 43.1551C155.062 48.624 155.062 53.9935 155.062 59.7608C162.024 59.7608 168.589 60.0591 175.153 59.6614C180.524 59.3631 183.608 61.4512 186.194 65.9258C194.051 79.0513 202.306 91.8785 210.363 104.905C211.556 106.893 213.048 107.689 215.336 107.987C222 108.882 228.565 110.175 235.129 111.07C236.521 111.268 238.61 110.771 239.605 109.876C249.75 99.9328 259.696 89.8898 269.742 79.8468C270.239 79.3496 270.637 78.6536 271.433 77.5598C266.161 77.5598 261.487 77.5598 256.812 77.5598C256.812 73.4829 256.812 69.7044 256.812 65.8264C266.758 65.8264 276.505 65.8264 286.153 65.8264C289.634 65.8264 292.121 67.7157 292.22 71.1959C292.519 81.2389 292.32 91.2819 292.32 101.424C288.242 101.424 284.462 101.424 280.384 101.424C280.384 96.552 280.384 91.8785 280.384 87.4039C270.538 97.248 260.89 106.993 251.043 116.837C275.71 128.57 293.712 147.065 303.559 173.018C313.505 199.07 312.212 225.023 301.272 250.777C317.782 250.777 333.796 250.777 349.909 250.777C356.175 250.777 358.065 248.887 358.065 242.523C358.065 168.444 358.065 94.3644 358.065 20.2849C358.065 14.0204 356.175 12.1311 349.809 12.1311C240.003 12.1311 130.296 12.1311 20.4892 12.1311C13.7258 12.1311 12.0349 13.921 12.0349 20.782C12.0349 94.4639 12.0349 168.146 12.0349 241.927C12.0349 249.086 13.6263 250.777 20.6882 250.777C51.2231 250.777 81.8575 250.777 112.392 250.777C113.586 250.777 114.78 250.777 116.371 250.777C115.177 247.694 113.984 245.009 113.188 242.126C112.492 239.54 111.199 238.745 108.513 238.745C83.1505 238.646 57.9866 238.646 32.7231 238.646C25.5618 238.646 23.871 236.955 23.871 229.995C23.871 176.697 23.871 123.4 23.871 70.0027C23.871 68.71 23.871 67.3179 23.871 65.8264C27.9489 65.8264 31.7285 65.8264 35.9059 65.8264C35.9059 119.522 35.9059 173.018 35.9059 226.415C60.4731 226.415 84.6425 226.415 108.911 226.415C104.535 199.567 109.806 175.007 124.726 152.137ZM119.355 208.815C119.454 258.433 159.637 298.506 209.368 298.307C258.503 298.207 298.387 257.837 298.288 208.417C298.188 159.196 258.005 119.223 208.672 119.323C159.438 119.323 119.255 159.594 119.355 208.815ZM101.452 95.4582C112.89 95.4582 124.328 95.4582 135.766 95.4582C141.137 95.4582 143.226 93.3701 143.226 88.0005C143.226 73.0852 143.226 58.1698 143.226 43.2545C143.226 37.885 141.137 35.7968 135.766 35.7968C112.89 35.7968 90.0134 35.7968 67.1371 35.7968C61.7661 35.7968 59.6774 37.885 59.6774 43.2545C59.6774 58.1698 59.6774 73.0852 59.6774 88.0005C59.6774 93.3701 61.7661 95.4582 67.1371 95.4582C78.5753 95.4582 90.0134 95.4582 101.452 95.4582ZM77.2823 357.968C88.7204 357.968 100.159 357.968 111.597 357.968C117.266 357.968 119.355 355.98 119.355 350.411C119.355 335.595 119.355 320.879 119.355 306.063C119.355 300.395 117.366 298.406 111.796 298.307C89.0188 298.307 66.3414 298.307 43.5645 298.307C37.8952 298.307 35.9059 300.296 35.8064 305.864C35.8064 320.68 35.8064 335.396 35.8064 350.212C35.8064 355.98 37.7957 357.968 43.7634 357.968C54.9032 357.968 66.1425 357.968 77.2823 357.968ZM289.336 316.603C300.973 328.237 312.61 339.97 324.347 351.604C332.602 359.858 344.538 360.255 352.395 352.599C360.352 344.843 360.054 332.712 351.798 324.359C340.559 313.023 329.32 301.887 318.081 290.65C317.583 290.153 316.987 289.755 316.688 289.457C307.538 298.506 298.586 307.455 289.336 316.603ZM286.253 300.793C291.226 295.821 296.099 290.849 300.675 286.375C296.398 282.198 291.922 277.624 288.043 273.846C283.468 278.519 278.495 283.491 273.72 288.264C277.599 292.241 282.075 296.616 286.253 300.793Z" fill="#21708e"/><path d="M286.452 208.914C286.253 251.97 251.342 286.474 208.374 286.275C165.406 286.076 130.992 250.876 131.29 207.522C131.589 165.262 166.898 130.957 209.766 131.255C252.038 131.553 286.651 166.654 286.452 208.914ZM150.487 238.546C151.481 240.435 152.078 241.629 152.774 242.722C167.992 265.891 189.476 276.829 217.127 273.647C248.358 270.167 272.428 244.214 274.417 212.991C276.406 181.47 255.618 152.932 225.183 145.176C222.796 144.579 221.403 144.977 219.613 146.668C204.893 161.484 190.172 176.2 175.352 191.016C167.296 199.07 166.401 199.07 158.742 190.519C155.858 187.237 152.874 184.055 149.691 180.476C142.729 195.789 141.336 210.903 145.812 226.813C170.877 226.813 195.742 226.813 220.608 226.813C220.608 230.89 220.608 234.569 220.608 238.546C197.334 238.546 174.258 238.546 150.487 238.546ZM166.6 181.271C179.53 168.444 192.161 155.716 204.594 143.287C185.1 144.878 168.788 153.429 156.256 169.637C159.936 173.913 163.516 177.89 166.6 181.271Z" fill="#21708e"/><path d="M71.812 59.363C71.812 55.3856 71.812 51.7065 71.812 47.8285C91.605 47.8285 111.1 47.8285 130.992 47.8285C130.992 51.5076 130.992 55.2862 130.992 59.363C111.398 59.363 91.7045 59.363 71.812 59.363Z" fill="#21708e"/><path d="M71.812 83.2276C71.812 79.3496 71.812 75.6705 71.812 71.7925C91.5056 71.7925 111.1 71.7925 130.992 71.7925C130.992 75.4716 130.992 79.2502 130.992 83.2276C111.398 83.2276 91.8039 83.2276 71.812 83.2276Z" fill="#21708e"/><path d="M47.9409 321.873C47.9409 317.896 47.9409 314.217 47.9409 310.438C67.7339 310.438 87.2285 310.438 107.121 310.438C107.121 314.117 107.121 317.896 107.121 321.873C87.5269 321.873 67.8334 321.873 47.9409 321.873Z" fill="#21708e"/><path d="M47.9409 345.738C47.9409 341.76 47.9409 338.081 47.9409 334.303C67.7339 334.303 87.2285 334.303 107.121 334.303C107.121 337.982 107.121 341.76 107.121 345.738C87.5269 345.738 67.9329 345.738 47.9409 345.738Z" fill="#21708e"/></g><defs fill="#21708e"><clipPath id="clip0_301_554" fill="#21708e"><rect width="370" height="370" fill="#21708e"/></clipPath></defs></svg>