<?xml version="1.0" encoding="UTF-8"?>
<svg id="Layer_1" data-name="Layer 1" xmlns="http://www.w3.org/2000/svg" viewBox="0 0 383.25 352.7">
  <defs>
    <style>
      .cls-1 {
        fill: #121212;
      }
    </style>
  </defs>
  <path class="cls-1" d="M383.25,111.7v192.75h-32.19v-171l-128.25,82.63c-19.33,11.1-43.61,11-62.86-.27L.34,112.48l-.34-2.26c.74.02,1.49-.07,2.13-.46C58.25,76.13,112.01,37.42,168.66,4.32c18.02-7.05,38.28-5.42,54.91,4.51l159.68,102.88Z"/>
  <path class="cls-1" d="M319.62,191.2v119.62c-34.51,34.15-91.9,43.44-138.89,41.66-40.41-1.53-87.88-12.24-117.11-41.66v-119.62l82.32,52.89c36.22,19.71,68.88,13.77,102.5-6.83,24.06-14.74,47.11-31.31,71.17-46.06Z"/>
</svg>