<svg xmlns="http://www.w3.org/2000/svg" width="380" height="320" viewBox="0 0 380 320" fill="none"><path d="M31.8287 123.148C13.2023 123.045 0.102343 109.888 0 91.0761C0 71.4423 0 51.8085 0 32.1748C0.102343 13.2605 13.0999 0 32.0334 0C96.5096 0 160.986 0 225.462 0C244.395 0 257.393 13.1577 257.495 32.1748C257.495 51.3974 257.495 70.62 257.495 89.8426C257.495 110.196 244.702 123.045 224.541 123.045C194.964 123.045 165.284 123.045 135.707 122.943C132.739 122.943 130.487 123.662 128.338 125.924C123.528 131.063 118.411 135.895 113.499 140.932C99.9892 154.501 86.4799 168.172 72.8683 181.741C69.5933 185.031 65.909 185.75 63.5551 182.872C62.2246 181.33 61.5082 178.76 61.5082 176.601C61.3035 158.921 61.4059 141.24 61.4059 122.943C51.1716 123.148 41.5513 123.148 31.8287 123.148ZM122.3 114.616C125.063 111.841 127.929 110.71 131.716 110.71C162.726 110.813 193.736 110.813 224.745 110.813C237.743 110.813 245.112 103.309 245.112 90.2538C245.112 71.0312 245.112 51.8086 245.112 32.5859C245.112 19.8394 237.641 12.3354 224.848 12.3354C160.781 12.3354 96.7142 12.3354 32.5451 12.3354C19.8546 12.3354 12.2812 19.8394 12.2812 32.4831C12.2812 51.8085 12.2812 71.2368 12.2812 90.5622C12.2812 103.103 19.7522 110.71 32.2381 110.71C43.4958 110.71 54.7536 110.71 65.909 110.71C71.4355 110.71 73.4824 112.869 73.4824 118.42C73.4824 131.886 73.4824 145.352 73.4824 158.818C73.4824 160.051 73.4824 161.285 73.4824 163.546C90.369 146.791 106.437 130.755 122.3 114.616Z" fill="#21708e"/><path d="M318.696 263.052C318.696 279.602 318.696 296.152 318.696 312.702C318.696 317.327 316.035 320.617 312.351 319.897C310.407 319.589 308.36 318.253 306.927 316.813C288.3 298.31 269.879 279.704 251.355 261.099C249.512 259.248 247.67 258.529 245.009 258.529C214.716 258.632 184.525 258.632 154.231 258.529C135.809 258.529 122.709 245.165 122.607 226.662C122.505 206.926 122.607 187.189 122.607 167.453C122.607 148.641 135.809 135.381 154.436 135.381C219.014 135.381 283.593 135.381 348.171 135.381C366.798 135.381 379.898 148.641 380 167.35C380 186.984 380 206.617 380 226.251C380 245.268 366.9 258.426 348.069 258.529C338.551 258.529 328.931 258.529 318.799 258.529C318.696 260.379 318.696 261.715 318.696 263.052ZM306.415 294.404C306.415 280.938 306.415 267.472 306.415 254.006C306.415 248.249 308.564 246.193 314.296 246.193C325.553 246.193 336.811 246.193 347.967 246.193C359.941 246.193 367.616 238.484 367.616 226.457C367.616 206.72 367.616 186.984 367.616 167.247C367.616 155.528 359.838 147.716 348.171 147.716C283.593 147.716 219.014 147.716 154.333 147.716C142.359 147.716 134.786 155.426 134.683 167.453C134.683 187.086 134.683 206.72 134.683 226.354C134.683 238.587 142.359 246.193 154.64 246.193C185.753 246.193 216.967 246.296 248.08 246.091C252.173 246.091 255.039 247.324 257.802 250.202C272.642 265.313 287.686 280.321 302.731 295.432C303.652 296.357 304.675 297.282 306.313 298.824C306.415 296.871 306.415 295.638 306.415 294.404Z" fill="#21708e"/><path d="M79.7253 24.6708C87.9128 24.6708 95.0768 30.2217 97.226 38.1369C99.4775 46.2576 96.2026 54.8924 88.8339 58.9014C86.2753 60.3405 85.4565 61.8824 85.6612 64.5551C85.8659 67.5362 85.7636 70.4144 85.6612 73.3955C85.5589 77.3017 83.1026 79.9743 79.623 79.9743C76.1433 80.0771 73.4824 77.5072 73.4824 73.601C73.38 67.7417 73.38 61.7797 73.4824 55.9204C73.5847 51.9114 75.4269 49.9583 79.5206 49.2387C83.512 48.5191 85.6612 46.4632 85.7636 43.1738C85.8659 40.1928 83.512 37.4173 80.5441 37.0061C77.4738 36.4921 74.5058 38.548 73.6871 41.8375C72.1519 47.7996 69.798 50.061 66.0113 49.1359C61.9176 48.1079 60.3825 44.2017 62.02 38.3425C64.1692 30.2217 71.4355 24.568 79.7253 24.6708Z" fill="#21708e"/><path d="M122.505 64.3496C122.505 61.7797 122.505 59.2099 122.505 56.64C122.607 51.8086 124.142 50.0611 128.952 49.2388C132.227 48.7248 134.274 46.8745 134.684 43.5851C135.093 40.3984 132.637 37.5202 129.464 37.0062C126.394 36.4922 123.426 38.6509 122.607 41.8376C121.072 47.7997 118.718 50.0611 114.931 49.0332C110.94 48.0052 109.405 44.2018 110.838 38.6509C112.885 30.4273 120.049 24.7736 128.338 24.6708C136.628 24.568 143.997 30.119 146.248 38.2397C148.5 46.3605 145.123 54.9953 137.754 59.0043C135.195 60.4434 134.377 61.9853 134.581 64.658C134.786 67.639 134.684 70.5173 134.581 73.4983C134.479 77.5073 132.023 80.0772 128.543 80.0772C125.063 80.0772 122.505 77.5073 122.402 73.6011C122.505 70.5173 122.505 67.4334 122.505 64.3496Z" fill="#21708e"/><path d="M171.527 64.6578C171.527 61.8824 171.425 59.0041 171.527 56.2287C171.63 51.9113 173.369 50.061 177.668 49.3414C181.659 48.6219 184.013 46.2576 183.706 42.7626C183.399 39.6787 181.659 37.7256 178.794 37.1088C175.826 36.4921 173.472 37.7256 172.244 40.5011C171.834 41.4262 171.732 42.4542 171.527 43.4821C170.811 47.2855 168.048 49.6498 164.67 49.2386C161.293 48.8274 159.144 45.9492 159.348 42.043C159.655 33.4082 166.819 25.8014 175.621 24.7735C184.32 23.7455 192.815 29.3992 195.271 37.9312C197.727 46.3604 194.247 54.9951 186.469 59.2097C184.32 60.3405 183.604 61.574 183.706 63.9383C183.911 67.1249 183.808 70.3115 183.706 73.601C183.604 77.5072 181.045 80.077 177.565 80.077C174.086 80.077 171.63 77.5072 171.425 73.601C171.527 70.5171 171.527 67.6389 171.527 64.6578Z" fill="#21708e"/><path d="M85.7636 92.4126C85.6613 95.702 82.898 98.4775 79.5207 98.4775C76.2457 98.3747 73.4824 95.5992 73.5848 92.207C73.6871 88.8147 76.4504 86.1421 79.8277 86.1421C83.1027 86.2449 85.7636 89.1231 85.7636 92.4126Z" fill="#21708e"/><path d="M134.786 92.5153C134.684 95.8047 131.818 98.5802 128.543 98.4774C125.268 98.3746 122.505 95.5991 122.607 92.2069C122.71 88.8147 125.473 86.142 128.85 86.2448C132.125 86.2448 134.888 89.1231 134.786 92.5153Z" fill="#21708e"/><path d="M171.629 92.207C171.629 88.8147 174.495 86.1421 177.77 86.1421C181.147 86.1421 183.808 89.0203 183.808 92.3098C183.808 95.5992 180.942 98.3747 177.667 98.3747C174.29 98.3747 171.527 95.5992 171.629 92.207Z" fill="#21708e"/><path d="M251.457 203.122C281.034 203.122 310.714 203.122 340.291 203.122C341.519 203.122 342.849 203.225 344.078 203.02C347.353 202.3 349.297 200.244 349.195 196.852C349.092 193.46 347.046 191.507 343.771 190.89C342.645 190.684 341.519 190.787 340.291 190.787C280.932 190.787 221.573 190.787 162.214 190.787C161.804 190.787 161.497 190.787 161.088 190.787C155.971 190.787 153.105 193.151 153.208 197.058C153.31 200.861 156.073 203.02 160.986 203.02C191.177 203.122 221.368 203.122 251.457 203.122Z" fill="#21708e"/><path d="M239.38 178.554C264.761 178.554 290.143 178.554 315.626 178.554C316.854 178.554 318.185 178.657 319.413 178.452C322.688 177.835 324.735 175.779 324.735 172.387C324.735 168.995 322.79 166.939 319.413 166.322C318.287 166.116 317.161 166.219 315.933 166.219C264.659 166.219 213.283 166.219 162.009 166.219C160.883 166.219 159.655 166.116 158.529 166.322C155.254 166.939 153.208 168.995 153.208 172.387C153.208 175.779 155.254 177.835 158.529 178.452C159.757 178.657 161.088 178.554 162.316 178.554C188.107 178.554 213.795 178.554 239.38 178.554Z" fill="#21708e"/><path d="M276.019 227.793C297.511 227.793 318.901 227.793 340.393 227.793C341.621 227.793 342.952 227.896 344.18 227.69C347.25 227.176 349.502 224.401 349.297 221.42C349.092 218.233 347.25 216.28 344.077 215.663C342.849 215.458 341.519 215.561 340.291 215.561C297.307 215.561 254.22 215.561 211.236 215.561C210.11 215.561 208.882 215.458 207.756 215.663C204.481 216.177 202.537 218.233 202.332 221.626C202.128 224.812 204.584 227.485 207.859 227.896C208.985 227.999 210.11 227.999 211.338 227.999C232.933 227.793 254.527 227.793 276.019 227.793Z" fill="#21708e"/></svg>