<svg width="61" height="61" viewBox="0 0 61 61" fill="none" xmlns="http://www.w3.org/2000/svg">
<rect width="61" height="61" rx="16" fill="white"/>
<g clip-path="url(#clip0_1192_1172)">
<path d="M50.0945 20.5232C49.8593 19.6489 49.4006 18.8519 48.764 18.2115C48.1274 17.571 47.3351 17.1095 46.466 16.8729C43.2843 16 30.4792 16 30.4792 16C30.4792 16 17.6734 16.0264 14.4918 16.8993C13.6227 17.1359 12.8304 17.5975 12.1938 18.2379C11.5571 18.8784 11.0984 19.6755 10.8633 20.5498C9.90089 26.2367 9.52757 34.9022 10.8897 40.3616C11.1249 41.2359 11.5836 42.0329 12.2202 42.6733C12.8568 43.3138 13.6491 43.7753 14.5182 44.0119C17.6999 44.8848 30.5053 44.8848 30.5053 44.8848C30.5053 44.8848 43.3106 44.8848 46.4921 44.0119C47.3612 43.7753 48.1535 43.3138 48.7902 42.6734C49.4268 42.0329 49.8856 41.2359 50.1208 40.3616C51.1358 34.6667 51.4486 26.0064 50.0945 20.5232Z" fill="#444444"/>
<path d="M26.4033 36.6311L37.0262 30.4415L26.4033 24.252V36.6311Z" fill="white"/>
</g>
<defs>
<clipPath id="clip0_1192_1172">
<rect width="41" height="29" fill="white" transform="translate(10 16)"/>
</clipPath>
</defs>
</svg>
