<svg width="61" height="61" viewBox="0 0 61 61" fill="none" xmlns="http://www.w3.org/2000/svg">
<rect width="61" height="61" rx="16" fill="white"/>
<path d="M30.5 12C25.4796 12 24.8482 12.0231 22.8757 12.111C20.9031 12.2035 19.5596 12.5134 18.3825 12.9712C17.1478 13.4356 16.0295 14.1641 15.1057 15.1057C14.1647 16.03 13.4363 17.1482 12.9712 18.3825C12.5134 19.5573 12.2012 20.9031 12.111 22.8688C12.0231 24.8459 12 25.4749 12 30.5023C12 35.5251 12.0231 36.1541 12.111 38.1266C12.2035 40.0969 12.5134 41.4404 12.9712 42.6175C13.4453 43.8339 14.0766 44.8652 15.1057 45.8943C16.1324 46.9234 17.1638 47.557 18.3802 48.0288C19.5596 48.4866 20.9008 48.7988 22.8711 48.889C24.8459 48.9769 25.4749 49 30.5 49C35.5251 49 36.1518 48.9769 38.1266 48.889C40.0946 48.7965 41.4428 48.4866 42.6198 48.0288C43.8537 47.5641 44.9712 46.8357 45.8943 45.8943C46.9234 44.8652 47.5547 43.8339 48.0288 42.6175C48.4843 41.4404 48.7965 40.0969 48.889 38.1266C48.9769 36.1541 49 35.5251 49 30.5C49 25.4749 48.9769 24.8459 48.889 22.8711C48.7965 20.9031 48.4843 19.5573 48.0288 18.3825C47.5638 17.1481 46.8354 16.0299 45.8943 15.1057C44.9708 14.1638 43.8524 13.4352 42.6175 12.9712C41.4381 12.5134 40.0923 12.2012 38.1243 12.111C36.1494 12.0231 35.5228 12 30.4954 12H30.5023H30.5ZM28.8419 15.3346H30.5023C35.4418 15.3346 36.0269 15.3508 37.9763 15.441C39.7801 15.5219 40.7606 15.8249 41.4127 16.0769C42.2753 16.4123 42.8927 16.8146 43.5402 17.4621C44.1877 18.1096 44.5878 18.7247 44.9231 19.5896C45.1774 20.2394 45.4781 21.2199 45.559 23.0237C45.6492 24.9731 45.6677 25.5582 45.6677 30.4954C45.6677 35.4326 45.6492 36.0199 45.559 37.9694C45.4781 39.7731 45.1751 40.7513 44.9231 41.4034C44.6265 42.2067 44.1531 42.933 43.5379 43.5286C42.8904 44.1761 42.2753 44.5762 41.4104 44.9115C40.7629 45.1659 39.7824 45.4665 37.9763 45.5498C36.0269 45.6376 35.4418 45.6584 30.5023 45.6584C25.5628 45.6584 24.9754 45.6376 23.026 45.5498C21.2223 45.4665 20.2441 45.1659 19.5919 44.9115C18.7883 44.6153 18.0614 44.1428 17.4644 43.5286C16.8487 42.9321 16.3746 42.2051 16.0769 41.4011C15.8249 40.7513 15.5219 39.7708 15.441 37.9671C15.3531 36.0176 15.3346 35.4326 15.3346 30.4908C15.3346 25.5513 15.3531 24.9685 15.441 23.0191C15.5243 21.2153 15.8249 20.2348 16.0793 19.5827C16.4146 18.7201 16.8169 18.1027 17.4644 17.4552C18.1119 16.8077 18.7271 16.4076 19.5919 16.0723C20.2441 15.8179 21.2223 15.5173 23.026 15.4341C24.7326 15.3554 25.394 15.3323 28.8419 15.33V15.3346ZM40.3767 18.4056C40.0852 18.4056 39.7965 18.463 39.5271 18.5746C39.2578 18.6862 39.0131 18.8497 38.8069 19.0558C38.6008 19.262 38.4372 19.5067 38.3257 19.7761C38.2141 20.0454 38.1567 20.3341 38.1567 20.6256C38.1567 20.9172 38.2141 21.2058 38.3257 21.4752C38.4372 21.7445 38.6008 21.9893 38.8069 22.1954C39.0131 22.4015 39.2578 22.5651 39.5271 22.6766C39.7965 22.7882 40.0852 22.8456 40.3767 22.8456C40.9655 22.8456 41.5301 22.6117 41.9465 22.1954C42.3628 21.7791 42.5967 21.2144 42.5967 20.6256C42.5967 20.0368 42.3628 19.4722 41.9465 19.0558C41.5301 18.6395 40.9655 18.4056 40.3767 18.4056ZM30.5023 21.0002C29.2422 20.9806 27.9907 21.2118 26.8208 21.6805C25.6508 22.1491 24.5858 22.8458 23.6877 23.73C22.7896 24.6142 22.0764 25.6682 21.5896 26.8307C21.1027 27.9931 20.852 29.2409 20.852 30.5012C20.852 31.7615 21.1027 33.0092 21.5896 34.1716C22.0764 35.3341 22.7896 36.3881 23.6877 37.2723C24.5858 38.1565 25.6508 38.8532 26.8208 39.3219C27.9907 39.7905 29.2422 40.0217 30.5023 40.0021C32.9964 39.9632 35.3752 38.945 37.1253 37.1675C38.8753 35.39 39.8561 32.9956 39.8561 30.5012C39.8561 28.0067 38.8753 25.6123 37.1253 23.8348C35.3752 22.0573 32.9964 21.0392 30.5023 21.0002ZM30.5023 24.3326C32.138 24.3326 33.7067 24.9823 34.8634 26.139C36.02 27.2956 36.6698 28.8643 36.6698 30.5C36.6698 32.1357 36.02 33.7044 34.8634 34.861C33.7067 36.0177 32.138 36.6674 30.5023 36.6674C28.8666 36.6674 27.2979 36.0177 26.1413 34.861C24.9847 33.7044 24.3349 32.1357 24.3349 30.5C24.3349 28.8643 24.9847 27.2956 26.1413 26.139C27.2979 24.9823 28.8666 24.3326 30.5023 24.3326Z" fill="#444444"/>
</svg>
