<svg width="61" height="61" viewBox="0 0 61 61" fill="none" xmlns="http://www.w3.org/2000/svg">
<path fill-rule="evenodd" clip-rule="evenodd" d="M3.88466 5.54923C0 10.0526 0 16.8684 0 30.5C0 44.1316 0 50.9474 3.88466 55.4508C4.39789 56.0457 4.95426 56.6021 5.54923 57.1153C10.0526 61 16.8684 61 30.5 61C44.1316 61 50.9474 61 55.4508 57.1153C56.0457 56.6021 56.6021 56.0457 57.1153 55.4508C61 50.9474 61 44.1316 61 30.5C61 16.8684 61 10.0526 57.1153 5.54923C56.6021 4.95426 56.0457 4.39789 55.4508 3.88466C50.9474 0 44.1316 0 30.5 0C16.8684 0 10.0526 0 5.54923 3.88466C4.95426 4.39789 4.39789 4.95426 3.88466 5.54923ZM20.1717 24.384H12.4565V48H20.1717V24.384ZM12 17.0777C12 14.7633 13.7252 13 16.3658 13C19.0052 13 20.6305 14.7633 20.681 17.0777C20.681 19.3445 19.0051 21.1591 16.314 21.1591H16.2648C13.6747 21.1591 12 19.3446 12 17.0777ZM32.1612 27.7272C33.1847 26.1204 35.0194 23.8292 39.1148 23.8292C44.1941 23.8292 48 27.2043 48 34.458V47.9999H40.2837V35.3645C40.2837 32.1912 39.1677 30.0246 36.3732 30.0246C34.2433 30.0246 32.9735 31.4848 32.4147 32.895C32.2117 33.401 32.1612 34.1048 32.1612 34.8111V48H24.4437C24.4437 48 24.5458 26.5994 24.4437 24.384H32.1612V27.7272Z" fill="white"/>
</svg>
