<svg width="61" height="61" viewBox="0 0 61 61" fill="none" xmlns="http://www.w3.org/2000/svg">
<rect width="61" height="61" rx="16" fill="white"/>
<path d="M39.1178 33.8352C39.0437 33.7996 36.2734 32.4355 35.7812 32.2583C35.5802 32.1861 35.3649 32.1157 35.1359 32.1157C34.7618 32.1157 34.4476 32.3021 34.2028 32.6683C33.9261 33.0796 33.0883 34.0589 32.8295 34.3514C32.7957 34.39 32.7495 34.4361 32.7219 34.4361C32.6971 34.4361 32.2684 34.2596 32.1386 34.2032C29.1668 32.9123 26.9111 29.808 26.6018 29.2846C26.5576 29.2093 26.5558 29.1751 26.5554 29.1751C26.5663 29.1353 26.6662 29.0351 26.7178 28.9834C26.8687 28.8341 27.0321 28.6373 27.1903 28.447C27.2652 28.3568 27.3402 28.2665 27.4139 28.1813C27.6433 27.9143 27.7455 27.7071 27.8639 27.467L27.926 27.3422C28.2152 26.7677 27.9682 26.2828 27.8884 26.1262C27.8229 25.9952 26.6531 23.1721 26.5288 22.8755C26.2297 22.1598 25.8345 21.8266 25.2854 21.8266C25.2344 21.8266 25.2854 21.8266 25.0717 21.8356C24.8115 21.8465 23.3945 22.0331 22.768 22.428C22.1036 22.8469 20.9796 24.1821 20.9796 26.5302C20.9796 28.6435 22.3208 30.6389 22.8966 31.3978C22.9109 31.4169 22.9371 31.4557 22.9753 31.5115C25.1804 34.7319 27.9293 37.1185 30.716 38.2317C33.3989 39.3034 34.6693 39.4272 35.3915 39.4272C35.695 39.4272 35.9381 39.4034 36.1524 39.3823L36.2884 39.3694C37.2152 39.2872 39.2519 38.2318 39.7151 36.9444C40.0801 35.9304 40.1763 34.8224 39.9335 34.4204C39.7672 34.147 39.4806 34.0094 39.1178 33.8352Z" fill="#444444"/>
<path d="M30.3373 12C20.0457 12 11.6729 20.3099 11.6729 30.5241C11.6729 33.8278 12.557 37.0616 14.2318 39.8919L11.0261 49.3481C10.9664 49.5244 11.0108 49.7193 11.1412 49.8521C11.2354 49.9482 11.3631 50 11.4935 50C11.5434 50 11.5938 49.9925 11.6429 49.9768L21.5032 46.8435C24.2014 48.2852 27.251 49.0462 30.3374 49.0462C40.628 49.0463 49 40.7373 49 30.5241C49 20.3099 40.628 12 30.3373 12ZM30.3373 45.1876C27.4331 45.1876 24.6203 44.349 22.2023 42.7624C22.121 42.7089 22.0266 42.6815 21.9316 42.6815C21.8814 42.6815 21.8311 42.6892 21.7821 42.7047L16.8427 44.2748L18.4372 39.5706C18.4888 39.4184 18.463 39.2504 18.368 39.1207C16.5268 36.6048 15.5534 33.6322 15.5534 30.5241C15.5534 22.4377 22.1854 15.8587 30.3372 15.8587C38.4879 15.8587 45.1192 22.4377 45.1192 30.5241C45.1193 38.6096 38.4882 45.1876 30.3373 45.1876Z" fill="#444444"/>
</svg>
