<svg width="61" height="61" viewBox="0 0 61 61" fill="none" xmlns="http://www.w3.org/2000/svg">
<rect width="61" height="61" rx="16" fill="white"/>
<path d="M12.4565 24.384H20.1717V48H12.4565V24.384ZM16.3658 13C13.7252 13 12 14.7633 12 17.0777C12 19.3446 13.6747 21.1591 16.2648 21.1591H16.314C19.0051 21.1591 20.681 19.3445 20.681 17.0777C20.6305 14.7633 19.0052 13 16.3658 13ZM39.1148 23.8292C35.0194 23.8292 33.1847 26.1204 32.1612 27.7272V24.384H24.4437C24.5458 26.5994 24.4437 48 24.4437 48H32.1612V34.8111C32.1612 34.1048 32.2117 33.401 32.4147 32.895C32.9735 31.4848 34.2433 30.0246 36.3732 30.0246C39.1677 30.0246 40.2837 32.1912 40.2837 35.3645V47.9999H48V34.458C48 27.2043 44.1941 23.8292 39.1148 23.8292Z" fill="#444444"/>
</svg>
