<svg width="61" height="61" viewBox="0 0 61 61" fill="none" xmlns="http://www.w3.org/2000/svg">
<path fill-rule="evenodd" clip-rule="evenodd" d="M3.88466 5.54923C0 10.0526 0 16.8684 0 30.5C0 44.1316 0 50.9474 3.88466 55.4508C4.39789 56.0457 4.95426 56.6021 5.54923 57.1153C10.0526 61 16.8684 61 30.5 61C44.1316 61 50.9474 61 55.4508 57.1153C56.0457 56.6021 56.6021 56.0457 57.1153 55.4508C61 50.9474 61 44.1316 61 30.5C61 16.8684 61 10.0526 57.1153 5.54923C56.6021 4.95426 56.0457 4.39789 55.4508 3.88466C50.9474 0 44.1316 0 30.5 0C16.8684 0 10.0526 0 5.54923 3.88466C4.95426 4.39789 4.39789 4.95426 3.88466 5.54923ZM30.8588 15.1224H30.6307L30.1361 15.125C27.6961 15.1337 25.2564 15.1773 22.8176 15.2557L22.3794 15.2736L22.1591 15.2813L21.7183 15.2967L21.2827 15.3146C18.4383 15.4427 15.7297 15.6478 14.4818 15.9809C13.6119 16.2171 12.8191 16.6774 12.1828 17.316C11.5466 17.9545 11.089 18.7488 10.8559 19.6196C10.5971 20.5908 10.4151 21.8823 10.2921 23.2122L10.2665 23.4788L10.2101 24.145L10.1896 24.4115L10.1819 24.5448L10.164 24.8087C10.0256 26.9099 10.0051 28.8139 10 29.3648V29.68C10.0129 31.4209 10.0829 33.1609 10.2101 34.8972L10.2306 35.1637L10.2511 35.4328C10.3792 36.8986 10.5689 38.3566 10.8533 39.4252C11.0868 40.2955 11.5446 41.0893 12.1808 41.7274C12.8171 42.3654 13.6096 42.8254 14.4792 43.0614C15.7272 43.3996 18.4357 43.6021 21.2801 43.7276L21.7183 43.7456L22.1565 43.7635L22.3794 43.7738L22.8151 43.7891C26.2488 43.907 29.5237 43.9224 30.3155 43.9224H30.6794C32.2451 43.9198 43.5431 43.8634 46.5156 43.0639C47.3856 42.8278 48.1783 42.3674 48.8146 41.7289C49.4509 41.0903 49.9085 40.296 50.1416 39.4252C50.426 38.3541 50.6156 36.8986 50.7437 35.4328L50.7668 35.1663L50.7873 34.8972C50.9718 32.4577 50.9949 30.1156 50.9974 29.6185V29.4263C50.9949 28.9471 50.9744 26.7536 50.8078 24.4115L50.7873 24.145L50.7309 23.4788L50.7053 23.2122C50.5823 21.8823 50.4004 20.5934 50.1416 19.6196C49.9085 18.7488 49.4509 17.9545 48.8146 17.316C48.1783 16.6774 47.3856 16.2171 46.5156 15.9809C43.6379 15.207 32.9651 15.1301 30.8588 15.1224ZM26.4 35.6942V23.3481L37.0523 29.5237L26.4 35.6942Z" fill="white"/>
</svg>
