<svg width="61" height="61" viewBox="0 0 61 61" fill="none" xmlns="http://www.w3.org/2000/svg">
<path fill-rule="evenodd" clip-rule="evenodd" d="M3.88466 5.54923C0 10.0526 0 16.8684 0 30.5C0 44.1316 0 50.9474 3.88466 55.4508C4.39789 56.0457 4.95426 56.6021 5.54923 57.1153C10.0526 61 16.8684 61 30.5 61C44.1316 61 50.9474 61 55.4508 57.1153C56.0457 56.6021 56.6021 56.0457 57.1153 55.4508C61 50.9474 61 44.1316 61 30.5C61 16.8684 61 10.0526 57.1153 5.54923C56.6021 4.95426 56.0457 4.39789 55.4508 3.88466C50.9474 0 44.1316 0 30.5 0C16.8684 0 10.0526 0 5.54923 3.88466C4.95426 4.39789 4.39789 4.95426 3.88466 5.54923ZM13.8676 43.1634C14.4462 43.7211 15.1293 44 15.9168 44H45.0832C45.8707 44 46.5538 43.7211 47.1324 43.1634C47.7108 42.6054 48 41.9467 48 41.1874V19.8126C48 19.0533 47.7108 18.3946 47.1324 17.8366C46.5538 17.2789 45.8707 17 45.0832 17H15.9168C15.1293 17 14.4462 17.2789 13.8676 17.8366C13.2892 18.3946 13 19.0533 13 19.8126V41.1874C13 41.9467 13.2892 42.6054 13.8676 43.1634ZM15.9168 22.4844L30.5 31.5686L45.0832 22.4844V41.1874H15.9168V22.4844ZM44.9668 19.8126L30.5 28.7564L16.0625 19.8126H44.9668Z" fill="white"/>
</svg>
