<svg xmlns="http://www.w3.org/2000/svg" version="1.1" xmlns:xlink="http://www.w3.org/1999/xlink" xmlns:svgjs="http://svgjs.dev/svgjs" width="1000" height="1000"><g clip-path="url(#SvgjsClipPath1082)"><rect width="1000" height="1000" fill="#ffffff"></rect><g transform="matrix(1.9070321811680573,0,0,1.9070321811680573,100,205.9356376638856)"><svg xmlns="http://www.w3.org/2000/svg" version="1.1" xmlns:xlink="http://www.w3.org/1999/xlink" xmlns:svgjs="http://svgjs.dev/svgjs" width="419.5" height="308.4"><svg version="1.1" id="Capa_1" xmlns="http://www.w3.org/2000/svg" xmlns:xlink="http://www.w3.org/1999/xlink" x="0px" y="0px" viewBox="0 0 419.5 308.4" style="enable-background:new 0 0 419.5 308.4;" xml:space="preserve">
<style type="text/css">
	.st0{fill:#01ADA1;}
	.st1{fill:#EAA23F;}
	.st2{fill:#C42329;}
	.st3{fill:#2093BF;}
	.st4{fill:#B7D041;}
</style>
<g>
	<polygon class="st0" points="77.8,193.7 46,206.1 53.2,177.4 84.6,167.4 	"></polygon>
	<polygon class="st1" points="66.6,252.7 30.7,252.7 43.5,213 80.6,201.1 	"></polygon>
	<polygon class="st2" points="410.3,271.8 238,296.3 249.4,169.1 410.3,117.8 	"></polygon>
	<polygon class="st3" points="368.7,88.7 182.9,160.3 195.3,81.9 368.1,6 	"></polygon>
	<polygon class="st4" points="109.7,270.1 43.5,276.9 59.5,215.9 127.8,193.7 	"></polygon>
	<polygon class="st0" points="215.8,253 145.1,261.5 153.1,215.9 221.5,201.1 	"></polygon>
	<polygon class="st1" points="138.6,162.9 85.5,187.2 95.5,143.5 145.1,120.1 	"></polygon>
	<polygon class="st2" points="112.6,148.6 84.6,153.2 96.6,117.8 122.3,110.9 	"></polygon>
	<polygon class="st2" points="28.1,229.6 8.8,238.1 14.5,215 34.6,204.7 	"></polygon>
	<polygon class="st2" points="208.4,185.7 118.8,213 130.2,150 221.5,107.5 	"></polygon>
</g>
</svg></svg></g></g><defs><clipPath id="SvgjsClipPath1082"><rect width="1000" height="1000" x="0" y="0" rx="500" ry="500"></rect></clipPath></defs></svg>