<svg width="61" height="61" viewBox="0 0 61 61" fill="none" xmlns="http://www.w3.org/2000/svg">
<path fill-rule="evenodd" clip-rule="evenodd" d="M3.88466 5.54923C0 10.0526 0 16.8684 0 30.5C0 44.1316 0 50.9474 3.88466 55.4508C4.39789 56.0457 4.95426 56.6021 5.54923 57.1153C10.0526 61 16.8684 61 30.5 61C44.1316 61 50.9474 61 55.4508 57.1153C56.0457 56.6021 56.6021 56.0457 57.1153 55.4508C61 50.9474 61 44.1316 61 30.5C61 16.8684 61 10.0526 57.1153 5.54923C56.6021 4.95426 56.0457 4.39789 55.4508 3.88466C50.9474 0 44.1316 0 30.5 0C16.8684 0 10.0526 0 5.54923 3.88466C4.95426 4.39789 4.39789 4.95426 3.88466 5.54923ZM39.7265 26.4979L38.6894 33.375H33.2419V50H25.9361V33.375H20V26.4979H25.9361V21.2566C25.9361 15.2938 29.4267 12 34.767 12C37.3248 12 40 12.4646 40 12.4646V18.3197H37.052C34.1478 18.3197 33.2419 20.1537 33.2419 22.0351V26.4979H39.7265Z" fill="white"/>
</svg>
