<svg width="61" height="61" viewBox="0 0 61 61" fill="none" xmlns="http://www.w3.org/2000/svg">
<path fill-rule="evenodd" clip-rule="evenodd" d="M3.88466 5.54923C0 10.0526 0 16.8684 0 30.5C0 44.1316 0 50.9474 3.88466 55.4508C4.39789 56.0457 4.95426 56.6021 5.54923 57.1153C10.0526 61 16.8684 61 30.5 61C44.1316 61 50.9474 61 55.4508 57.1153C56.0457 56.6021 56.6021 56.0457 57.1153 55.4508C61 50.9474 61 44.1316 61 30.5C61 16.8684 61 10.0526 57.1153 5.54923C56.6021 4.95426 56.0457 4.39789 55.4508 3.88466C50.9474 0 44.1316 0 30.5 0C16.8684 0 10.0526 0 5.54923 3.88466C4.95426 4.39789 4.39789 4.95426 3.88466 5.54923ZM22.8757 12.111C24.8482 12.0231 25.4796 12 30.5 12H30.4954C35.5228 12 36.1494 12.0231 38.1243 12.111C40.0923 12.2012 41.4381 12.5134 42.6175 12.9712C43.8524 13.4352 44.9708 14.1637 45.8943 15.1057C46.8354 16.0299 47.5638 17.1481 48.0288 18.3825C48.4843 19.5573 48.7965 20.9031 48.889 22.8711C48.9769 24.8459 49 25.4749 49 30.5C49 35.5251 48.9769 36.1541 48.889 38.1266C48.7965 40.0969 48.4843 41.4404 48.0288 42.6175C47.5547 43.8339 46.9234 44.8652 45.8943 45.8943C44.9712 46.8357 43.8537 47.5641 42.6198 48.0288C41.4428 48.4866 40.0946 48.7965 38.1266 48.889C36.1518 48.9769 35.5251 49 30.5 49C25.4749 49 24.8459 48.9769 22.8711 48.889C20.9008 48.7988 19.5596 48.4866 18.3802 48.0288C17.1638 47.557 16.1324 46.9234 15.1057 45.8943C14.0766 44.8652 13.4453 43.8339 12.9712 42.6175C12.5134 41.4404 12.2035 40.0969 12.111 38.1266C12.0231 36.1541 12 35.5251 12 30.5023C12 25.4749 12.0231 24.8459 12.111 22.8687C12.2012 20.9031 12.5134 19.5573 12.9712 18.3825C13.4363 17.1482 14.1647 16.03 15.1057 15.1057C16.0295 14.1641 17.1478 13.4356 18.3825 12.9712C19.5596 12.5134 20.9031 12.2035 22.8757 12.111ZM30.5023 15.3346H28.8419V15.33C25.394 15.3323 24.7326 15.3554 23.026 15.4341C21.2222 15.5173 20.2441 15.8179 19.5919 16.0723C18.7271 16.4076 18.1119 16.8077 17.4644 17.4552C16.8169 18.1027 16.4146 18.7201 16.0793 19.5827C15.8249 20.2348 15.5243 21.2153 15.441 23.0191C15.3531 24.9685 15.3346 25.5513 15.3346 30.4907C15.3346 35.4326 15.3531 36.0176 15.441 37.9671C15.5219 39.7708 15.8249 40.7513 16.0769 41.4011C16.3746 42.2051 16.8487 42.9321 17.4644 43.5286C18.0614 44.1428 18.7883 44.6153 19.5919 44.9115C20.2441 45.1659 21.2222 45.4665 23.026 45.5498C24.9754 45.6376 25.5628 45.6584 30.5023 45.6584C35.4418 45.6584 36.0269 45.6376 37.9763 45.5498C39.7824 45.4665 40.7629 45.1659 41.4104 44.9115C42.2753 44.5762 42.8904 44.1761 43.5379 43.5286C44.1531 42.933 44.6265 42.2067 44.9231 41.4034C45.1751 40.7513 45.4781 39.7731 45.559 37.9694C45.6492 36.0199 45.6677 35.4326 45.6677 30.4954C45.6677 25.5582 45.6492 24.9731 45.559 23.0237C45.4781 21.2199 45.1774 20.2394 44.9231 19.5896C44.5878 18.7248 44.1877 18.1096 43.5402 17.4621C42.8927 16.8146 42.2752 16.4123 41.4127 16.0769C40.7606 15.8249 39.7801 15.5219 37.9763 15.441C36.0269 15.3508 35.4418 15.3346 30.5023 15.3346ZM39.5271 18.5746C39.7965 18.463 40.0852 18.4056 40.3767 18.4056C40.9655 18.4056 41.5301 18.6395 41.9465 19.0558C42.3628 19.4722 42.5967 20.0368 42.5967 20.6256C42.5967 21.2144 42.3628 21.7791 41.9465 22.1954C41.5301 22.6117 40.9655 22.8456 40.3767 22.8456C40.0852 22.8456 39.7965 22.7882 39.5271 22.6766C39.2578 22.5651 39.0131 22.4015 38.8069 22.1954C38.6008 21.9893 38.4372 21.7445 38.3257 21.4752C38.2141 21.2058 38.1567 20.9172 38.1567 20.6256C38.1567 20.3341 38.2141 20.0454 38.3257 19.7761C38.4372 19.5067 38.6008 19.262 38.8069 19.0558C39.0131 18.8497 39.2578 18.6862 39.5271 18.5746ZM26.8208 21.6805C27.9907 21.2118 29.2422 20.9806 30.5023 21.0002C32.9964 21.0392 35.3752 22.0573 37.1253 23.8348C38.8753 25.6123 39.8561 28.0067 39.8561 30.5012C39.8561 32.9956 38.8753 35.39 37.1253 37.1675C35.3752 38.945 32.9964 39.9632 30.5023 40.0021C29.2422 40.0217 27.9907 39.7905 26.8208 39.3219C25.6508 38.8532 24.5858 38.1565 23.6877 37.2723C22.7896 36.3881 22.0764 35.3341 21.5896 34.1716C21.1027 33.0092 20.852 31.7615 20.852 30.5012C20.852 29.2409 21.1027 27.9931 21.5896 26.8307C22.0764 25.6682 22.7896 24.6142 23.6877 23.73C24.5858 22.8458 25.6508 22.1491 26.8208 21.6805ZM34.8633 26.139C33.7067 24.9823 32.138 24.3326 30.5023 24.3326C28.8666 24.3326 27.2979 24.9823 26.1413 26.139C24.9847 27.2956 24.3349 28.8643 24.3349 30.5C24.3349 32.1357 24.9847 33.7044 26.1413 34.861C27.2979 36.0177 28.8666 36.6674 30.5023 36.6674C32.138 36.6674 33.7067 36.0177 34.8633 34.861C36.02 33.7044 36.6698 32.1357 36.6698 30.5C36.6698 28.8643 36.02 27.2956 34.8633 26.139Z" fill="white"/>
</svg>
